<svg xmlns="http://www.w3.org/2000/svg" width="23.845" height="22.609" viewBox="0 0 23.845 22.609" fill="#ffffff">
  <title>Follow Omnissa on LinkedIn</title>
  <path
    fill="#ffffff"
    fill-rule="evenodd"
    d="M2.939 5.364a2.82 2.82 0 0 0 2.938-2.681A2.82 2.82 0 0 0 2.939 0 2.82 2.82 0 0 0 0 2.684a2.82 2.82 0 0 0 2.939 2.681M.673 22.607h5.271v-15.2H.673ZM13.343 14.154c0-1.743.825-3.448 2.8-3.448s2.457 1.7 2.457 3.407v8.3h5.248v-8.641c0-6-3.549-7.039-5.733-7.039s-3.385.738-4.769 2.526V7.212H8.08v15.2h5.263Z"
  />
</svg> 