<svg xmlns="http://www.w3.org/2000/svg" width="21.672" height="15.146" viewBox="0 0 21.672 15.146" fill="#ffffff">
  <title>Follow Omnissa on YouTube</title>
  <path
    fill="#ffffff"
    d="M11.125 15.146c-1.868 0-3.746-.042-5.288-.119a24 24 0 0 1-3.469-.34 2.71 2.71 0 0 1-1.915-1.914A24 24 0 0 1 0 7.557a26 26 0 0 1 .439-5.175A2.71 2.71 0 0 1 2.354.468 51 51 0 0 1 10.687 0a51 51 0 0 1 8.59.454 2.71 2.71 0 0 1 1.914 1.914 16 16 0 0 1 .366 2.369c.078.877.117 1.825.115 2.817a26 26 0 0 1-.467 5.218 2.71 2.71 0 0 1-1.915 1.914 20.5 20.5 0 0 1-3.259.348 97 97 0 0 1-4.906.112M8.734 4.324v6.492l5.66-3.246z"
    data-name="Subtraction 1"
  />
</svg> 